<?xml version="1.0" encoding="UTF-8" standalone="no"?>
<!DOCTYPE svg PUBLIC "-//W3C//DTD SVG 20010904//EN"
              "http://www.w3.org/TR/2001/REC-SVG-20010904/DTD/svg10.dtd">

<svg xmlns="http://www.w3.org/2000/svg"
     width="8.33229in" height="8.33229in"
     viewBox="0 0 600 600">
  <path id="Selection"
        fill="white" stroke="white" stroke-width="1"
        d="M 197.51,-0.32
           C 197.51,-0.32 530.00,0.00 530.00,0.00
             530.00,0.00 530.00,75.00 530.00,75.00
             530.00,75.00 482.38,74.83 482.38,74.83
             482.38,74.83 495.00,84.99 500.00,90.00
             510.18,100.18 520.35,112.27 528.71,124.00
             554.70,160.46 572.13,199.93 580.39,244.00
             582.18,253.54 584.96,272.64 585.00,282.00
             585.00,282.00 586.00,299.00 586.00,299.00
             586.00,299.00 513.00,299.00 513.00,299.00
             513.00,299.00 513.00,287.00 513.00,287.00
             512.98,272.18 508.52,250.37 504.42,236.00
             485.74,170.52 437.49,115.00 374.00,89.60
             356.11,82.44 331.29,75.01 312.00,75.00
             312.00,75.00 312.00,299.00 312.00,299.00
             312.00,299.00 430.00,299.00 430.00,299.00
             430.00,299.00 404.34,373.51 404.34,373.51
             404.34,373.51 312.00,373.00 312.00,373.00
             312.00,373.00 312.00,600.00 312.00,600.00
             312.00,600.00 293.00,599.00 293.00,599.00
             293.00,599.00 283.00,598.08 283.00,598.08
             248.62,595.33 212.01,584.75 181.00,569.74
             106.05,533.46 49.19,466.68 25.28,387.00
             17.67,361.65 13.00,335.49 13.00,309.00
             13.00,309.00 87.00,309.00 87.00,309.00
             87.00,322.67 89.80,339.70 93.13,353.00
             106.05,404.69 135.11,449.47 178.00,481.37
             192.61,492.24 219.34,507.86 237.00,512.00
             237.00,512.00 237.00,75.00 237.00,75.00
             237.00,75.00 166.00,75.00 166.00,75.00
             166.00,75.00 197.51,-0.32 197.51,-0.32 Z" />
</svg>
